<?xml version="1.0" standalone="no"?>
<!DOCTYPE svg PUBLIC "-//W3C//DTD SVG 20010904//EN"
 "http://www.w3.org/TR/2001/REC-SVG-20010904/DTD/svg10.dtd">
<svg version="1.0" xmlns="http://www.w3.org/2000/svg"
 width="1080.000000pt" height="1080.000000pt" viewBox="0 0 1080.000000 1080.000000"
 preserveAspectRatio="xMidYMid meet">

<g transform="translate(0.000000,1080.000000) scale(0.100000,-0.100000)"
fill="#ffffff" stroke="none">
<path d="M1040 7671 l0 -1801 778 0 c623 0 802 3 904 15 257 30 457 87 663
190 305 152 528 370 679 665 96 189 146 345 183 576 25 156 25 546 0 699 -38
227 -86 383 -172 557 -78 158 -165 278 -290 403 -252 252 -558 399 -980 471
-88 15 -204 18 -932 21 l-833 4 0 -1800z m1581 1094 c410 -71 665 -341 754
-796 25 -129 30 -379 11 -525 -62 -466 -291 -751 -691 -856 -73 -19 -114 -22
-442 -25 l-363 -5 0 1111 0 1111 324 0 c240 0 345 -4 407 -15z"/>
<path d="M4949 6028 l0 -3443 -124 250 c-104 212 -207 389 -678 1170 l-555
920 -451 3 -451 2 0 -1800 0 -1800 426 0 426 0 -6 223 c-10 368 -38 2108 -34
2168 l3 57 130 -274 c123 -260 160 -325 700 -1222 l571 -947 453 -3 454 -2 -6
1832 c-4 1007 -7 2839 -7 4070 l0 2238 -425 0 -425 0 -1 -3442z"/>
<path d="M6133 9408 c13 -35 311 -845 662 -1801 l639 -1737 504 2 504 3 653
1775 c358 976 655 1785 659 1798 l7 22 -429 0 -430 0 -10 -27 c-5 -16 -194
-550 -420 -1188 -340 -958 -420 -1193 -459 -1352 -26 -106 -50 -193 -53 -193
-3 0 -29 91 -58 201 -40 155 -150 476 -470 1380 l-417 1179 -452 0 -453 0 23
-62z"/>
<path d="M1040 3130 l0 -1800 425 0 425 0 0 1800 0 1800 -425 0 -425 0 0
-1800z"/>
<path d="M6570 3130 l0 -1800 1295 0 1295 0 0 335 0 335 -870 0 -870 0 0 420
0 420 765 0 765 0 0 330 0 330 -765 0 -765 0 0 380 0 380 870 0 870 0 0 335 0
335 -1295 0 -1295 0 0 -1800z"/>
</g>
</svg>
